<?xml version="1.0" encoding="utf-8"?>
<!-- Generator: Adobe Illustrator 21.1.0, SVG Export Plug-In . SVG Version: 6.00 Build 0)  -->
<svg version="1.1" xmlns="http://www.w3.org/2000/svg" xmlns:xlink="http://www.w3.org/1999/xlink" x="0px" y="0px"
	 viewBox="0 0 577 577" style="enable-background:new 0 0 577 577;" xml:space="preserve">
<style type="text/css">
	.st0{fill:none;stroke:#BC7777;stroke-width:2;stroke-miterlimit:10;}
	.st1{fill:none;stroke:#BC7777;stroke-miterlimit:10;}
	.st2{fill:#3A3A3A;stroke:#BC7777;stroke-width:0.5;stroke-miterlimit:10;}
	.st3{fill:#BC7777;}
	.st4{fill:none;stroke:#3A3A3A;stroke-width:2;stroke-miterlimit:10;}
	.st5{fill:none;stroke:#3A3A3A;stroke-miterlimit:10;}
	.st6{fill-rule:evenodd;clip-rule:evenodd;fill:none;stroke:#3A3A3A;stroke-miterlimit:10;}
	.st7{fill:#3A3A3A;}
	.st8{fill-rule:evenodd;clip-rule:evenodd;fill:none;stroke:#3A3A3A;stroke-width:2;stroke-miterlimit:10;}
	.st9{fill-rule:evenodd;clip-rule:evenodd;fill:#3A3A3A;stroke:#3A3A3A;stroke-miterlimit:10;}
	.st10{fill:#FFFFFF;stroke:#3A3A3A;stroke-miterlimit:10;}
	.st11{font-family:'MyriadPro-Regular';}
	.st12{font-size:12px;}
	.st13{fill:none;stroke:#3A3A3A;stroke-width:3;stroke-miterlimit:10;}
	.st14{fill:#FFFFFF;stroke:#BC7777;stroke-width:2;stroke-miterlimit:10;}
	.st15{fill:none;stroke:#BC7777;stroke-width:2;stroke-linecap:round;stroke-linejoin:round;stroke-miterlimit:10;}
	.st16{fill:#231F20;}
	.st17{fill:none;stroke:#FFFFFF;stroke-miterlimit:10;}
	.st18{fill:#FFFFFF;}
	.st19{fill:#FFFFFF;stroke:#FFFFFF;stroke-miterlimit:10;}
	.st20{fill:#FFFFFF;stroke:#FFFFFF;stroke-linecap:round;stroke-miterlimit:10;}
	.st21{fill:none;stroke:#3A3A3A;stroke-linecap:round;stroke-miterlimit:10;}
	.st22{fill:#3A3A3A;stroke:#3A3A3A;stroke-miterlimit:10;}
	.st23{fill:#3A3A3A;stroke:#3A3A3A;stroke-width:2;stroke-miterlimit:10;}
	.st24{fill:#FFFFFF;stroke:#3A3A3A;stroke-width:2;stroke-miterlimit:10;}
	.st25{fill:#3A3A3A;stroke:#FFFFFF;stroke-miterlimit:10;}
	.st26{fill:url(#SVGID_1_);}
	.st27{fill:none;stroke:#FFFFFF;stroke-width:2;stroke-miterlimit:10;}
	.st28{fill:none;stroke:#3A3A3A;stroke-width:2;stroke-linecap:round;stroke-miterlimit:10;}
</style>
<g id="form">
	<g>
		<path class="st0" d="M49.9,13.4c0,0,2.1,0,4.7,0c2.6,0,4.7,2.7,4.7,6V62c0,3.3-2.7,6-6,6H22c-3.3,0-6-2.7-6-6V19.4
			c0-3.3,1.9-6,4.2-6s4.2,0,4.2,0"/>
	</g>
	<g>
		<path class="st0" d="M40.7,8.7c0.1,0.5,0.7,1,1.2,1l3.2,0c0.5,0,1,0.4,1,1v4.6c0,0.6-0.5,1-1,1H29.2c-0.5,0-1-0.5-1-1v-4.6
			c0-0.6,0.5-1,1-1l3.2,0c0.5,0,1.1-0.4,1.2-1c0,0,0.4-2.4,3.5-2.4C40.2,6.2,40.7,8.7,40.7,8.7z"/>
	</g>
	<rect x="22.5" y="23.5" class="st1" width="27" height="4"/>
	<rect x="22.5" y="41.5" class="st1" width="27" height="3"/>
	<line class="st1" x1="23" y1="49.5" x2="49" y2="49.5"/>
	<line class="st1" x1="29" y1="35.5" x2="48" y2="35.5"/>
	<line class="st1" x1="23" y1="59.5" x2="47" y2="59.5"/>
	<line class="st1" x1="23" y1="53.5" x2="50" y2="53.5"/>
	<line class="st1" x1="29" y1="35.5" x2="47" y2="35.5"/>
	<line class="st1" x1="29" y1="30.5" x2="45" y2="30.5"/>
	<circle class="st2" cx="24.9" cy="30.9" r="0.7"/>
	<circle class="st2" cx="24.9" cy="35.1" r="0.7"/>
</g>
<g id="document">
	<g>
		<path class="st0" d="M119.4,6.1c2.2,0,5.8,0,8,0h2.7c2.2,0,4,1.8,4,4V64c0,2.2-1.8,4-4,4H89c-2.2,0-4-1.8-4-4V10.1
			c0-2.2,1.8-4,4-4h1.6c2.2,0,5.8,0,8,0H119.4z"/>
	</g>
	<line class="st1" x1="94" y1="15.5" x2="117" y2="15.5"/>
	<line class="st1" x1="94" y1="20.5" x2="123" y2="20.5"/>
	<line class="st1" x1="94" y1="26.5" x2="126" y2="26.5"/>
	<line class="st1" x1="94" y1="32.5" x2="124" y2="32.5"/>
	<line class="st1" x1="94" y1="37.5" x2="111" y2="37.5"/>
	<line class="st1" x1="94" y1="42.5" x2="121" y2="42.5"/>
	<line class="st1" x1="94" y1="49.5" x2="111" y2="49.5"/>
	<line class="st1" x1="94" y1="54.5" x2="121" y2="54.5"/>
	<line class="st1" x1="94" y1="60.5" x2="111" y2="60.5"/>
</g>
<g id="documents">
	<g>
		<path class="st0" d="M185.7,13.5c2.2,0,5.8,0,8,0h1.4c2.2,0,4,1.8,4,4V64c0,2.2-1.8,4-4,4h-35.2c-2.2,0-4-1.8-4-4V17.5
			c0-2.2,1.8-4,4-4h0.5c2.2,0,5.8,0,8,0H185.7z"/>
	</g>
	<line class="st1" x1="163" y1="22.5" x2="184" y2="22.5"/>
	<line class="st1" x1="163" y1="25.5" x2="190" y2="25.5"/>
	<line class="st1" x1="163" y1="31.5" x2="192" y2="31.5"/>
	<line class="st1" x1="163" y1="36.5" x2="191" y2="36.5"/>
	<line class="st1" x1="163" y1="41.5" x2="178" y2="41.5"/>
	<line class="st1" x1="163" y1="46.5" x2="187" y2="46.5"/>
	<line class="st1" x1="163" y1="51.5" x2="178" y2="51.5"/>
	<line class="st1" x1="163" y1="55.5" x2="187" y2="55.5"/>
	<line class="st1" x1="163" y1="61.5" x2="178" y2="61.5"/>
	<g>
		<path class="st0" d="M159.6,13.5c0-0.9,0-0.9,0-0.9c0-1.5,1.8-2.8,4-2.8h0.5c2.2,0,5.8,0,8,0h17.4c2.2,0,5.8,0,8,0h1.4
			c2.2,0,4,1.8,4,4v46.5c0,2.2-1.3,4-2.9,4c0,0,0,0-1,0"/>
	</g>
	<g>
		<path class="st0" d="M163.4,9.8c0-0.9,0-0.9,0-0.9c0-1.5,1.8-2.8,4-2.8h0.5c2.2,0,5.8,0,8,0h17.4c2.2,0,5.8,0,8,0h1.4
			c2.2,0,4,1.8,4,4v46.5c0,2.2-1.3,4-2.9,4c0,0,0,0-1,0"/>
	</g>
</g>
<g id="binder">
	<g>
		<path class="st0" d="M265,6c2.2,0,5.8,0,8,0h2.4c2.2,0,4,1.8,4,4v54c0,2.2-1.8,4-4,4h-39.9c-2.2,0-4-1.8-4-4V10c0-2.2,1.8-4,4-4
			h1.4c2.2,0,5.8,0,8,0H265z"/>
	</g>
	<g>
		<g>
			<path class="st3" d="M227,15.4c2.7,0,5.4,0,8.1,0c1.9,0,1.9-3,0-3c-2.7,0-5.4,0-8.1,0C225.1,12.4,225.1,15.4,227,15.4L227,15.4z"
				/>
		</g>
	</g>
	<line class="st1" x1="239.5" y1="10" x2="239.5" y2="13"/>
	<line class="st1" x1="239.5" y1="16" x2="239.5" y2="19"/>
	<line class="st1" x1="239.5" y1="23" x2="239.5" y2="26"/>
	<line class="st1" x1="239.5" y1="30" x2="239.5" y2="33"/>
	<line class="st1" x1="239.5" y1="35" x2="239.5" y2="39"/>
	<line class="st1" x1="239.5" y1="42" x2="239.5" y2="46"/>
	<line class="st1" x1="239.5" y1="48" x2="239.5" y2="52"/>
	<line class="st1" x1="239.5" y1="55" x2="239.5" y2="59"/>
	<line class="st1" x1="239.5" y1="61" x2="239.5" y2="65"/>
	<g>
		<g>
			<path class="st3" d="M227,22.4c2.7,0,5.4,0,8.1,0c1.9,0,1.9-3,0-3c-2.7,0-5.4,0-8.1,0C225.1,19.4,225.1,22.4,227,22.4L227,22.4z"
				/>
		</g>
	</g>
	<g>
		<g>
			<path class="st3" d="M227,29.4c2.7,0,5.4,0,8.1,0c1.9,0,1.9-3,0-3c-2.7,0-5.4,0-8.1,0C225.1,26.4,225.1,29.4,227,29.4L227,29.4z"
				/>
		</g>
	</g>
	<g>
		<g>
			<path class="st3" d="M227,36.3c2.7,0,5.4,0,8.1,0c1.9,0,1.9-3,0-3c-2.7,0-5.4,0-8.1,0C225.1,33.3,225.1,36.3,227,36.3L227,36.3z"
				/>
		</g>
	</g>
	<g>
		<g>
			<path class="st3" d="M227,42.7c2.7,0,5.4,0,8.1,0c1.9,0,1.9-3,0-3c-2.7,0-5.4,0-8.1,0C225.1,39.7,225.1,42.7,227,42.7L227,42.7z"
				/>
		</g>
	</g>
	<g>
		<g>
			<path class="st3" d="M227,49.1c2.7,0,5.4,0,8.1,0c1.9,0,1.9-3,0-3c-2.7,0-5.4,0-8.1,0C225.1,46.1,225.1,49.1,227,49.1L227,49.1z"
				/>
		</g>
	</g>
	<g>
		<g>
			<path class="st3" d="M227,56.1c2.7,0,5.4,0,8.1,0c1.9,0,1.9-3,0-3c-2.7,0-5.4,0-8.1,0C225.1,53.1,225.1,56.1,227,56.1L227,56.1z"
				/>
		</g>
	</g>
	<g>
		<g>
			<path class="st3" d="M227,63.1c2.7,0,5.4,0,8.1,0c1.9,0,1.9-3,0-3c-2.7,0-5.4,0-8.1,0C225.1,60.1,225.1,63.1,227,63.1L227,63.1z"
				/>
		</g>
	</g>
</g>
<g id="files">
	<g>
		<g>
			<path class="st3" d="M305.9,22.9l-5.4,0.1c-1.6,0-3,1.4-3,3v36.6c0,1.7,1.4,3,3,3l36.3-0.1c1.6,0,3-1.4,3-3V32.4
				c0-1.7,0.7-2.9,1.6-2.7s1.6,1.6,1.6,3.3v32.2c0,1.7-1.3,3-3,3h-40.5c-1.7,0-3-1.3-3-3V24.9c0-1.6,1.3-3,3-3h6.5"/>
		</g>
	</g>
	<polyline class="st1" points="306.1,32.7 306.1,6.2 342.4,6.2 342.4,7.9 	"/>
	<polyline class="st1" points="307.9,32.1 307.9,8 344.3,8 344.3,9.8 	"/>
	<rect x="309.9" y="9.8" class="st1" width="36.3" height="55.3"/>
	<line class="st1" x1="314.6" y1="17" x2="331.6" y2="17"/>
	<line class="st1" x1="314.6" y1="20.5" x2="340.7" y2="20.5"/>
	<line class="st1" x1="314.6" y1="27.7" x2="340.7" y2="27.7"/>
	<line class="st1" x1="314.6" y1="24.1" x2="340.7" y2="24.1"/>
	<g>
		<path class="st3" d="M349.9,34c-0.2,1.6-1.8,3-3.4,3H336c-1.6,0-2.8-1.3-2.6-3l0.3-1.9c0.2-1.6,1.8-3,3.4-3h10.5
			c1.7,0,2.8,1.3,2.6,3L349.9,34z"/>
	</g>
	<g>
		<path class="st3" d="M303.8,34.5c0.3-1.6,2-2.9,3.6-2.9h46.3c1.6,0,2.7,1.3,2.4,2.9l-6.6,30.6c-0.3,1.6-2,2.9-3.6,2.9h-46.3
			c-1.7,0-2.7-1.3-2.4-2.9L303.8,34.5z"/>
	</g>
</g>
<g id="folder">
	<g>
		<g>
			<path class="st3" d="M416.2,65.1c0,1.7-1.4,3-3,3h-40.5c-1.7,0-3-1.3-3-3V25c0-1.6,1.3-3,3-3h40.5c1.6,0,3,1.4,3,3V65.1z
				 M415.1,26c0-1.6-1.3-3-3-3h-38.2c-1.6,0-3,1.4-3,3v36.5c0,1.7,1.4,3,3,3h38.2c1.7,0,3-1.3,3-3V26z"/>
		</g>
	</g>
	<g>
		<path class="st3" d="M423.1,34c-0.2,1.6-1.8,3-3.4,3h-10.4c-1.6,0-2.8-1.3-2.6-3l0.3-1.8c0.2-1.6,1.8-3,3.4-3h10.5
			c1.6,0,2.8,1.3,2.6,3L423.1,34z"/>
	</g>
	<g>
		<path class="st3" d="M377.1,34.5c0.3-1.6,2-2.9,3.6-2.9h46.2c1.6,0,2.7,1.3,2.4,2.9l-6.6,30.6c-0.3,1.6-2,2.9-3.6,2.9h-46.2
			c-1.7,0-2.7-1.3-2.4-2.9L377.1,34.5z"/>
	</g>
</g>
<g id="telephone_book">
	<g>
		<path class="st4" d="M49.9,78c2.2,0,5.8,0,8,0h2.4c2.2,0,3.8,2,3.8,4.3V136c0,2.2-1.6,4-3.8,4H20.5c-2.2,0-4.5-1.8-4.5-4V82.3
			c0-2.2,2.3-4.3,4.5-4.3h1.3c2.2,0,5.8,0,8,0H49.9z"/>
	</g>
	<line class="st5" x1="24.5" y1="82" x2="24.5" y2="85"/>
	<line class="st5" x1="24.5" y1="88" x2="24.5" y2="91"/>
	<line class="st5" x1="24.5" y1="95" x2="24.5" y2="98"/>
	<line class="st5" x1="24.5" y1="102" x2="24.5" y2="106"/>
	<line class="st5" x1="24.5" y1="108" x2="24.5" y2="112"/>
	<line class="st5" x1="24.5" y1="115" x2="24.5" y2="118"/>
	<line class="st5" x1="24.5" y1="120" x2="24.5" y2="124"/>
	<line class="st5" x1="24.5" y1="127" x2="24.5" y2="131"/>
	<line class="st5" x1="24.5" y1="133" x2="24.5" y2="137"/>
	<path class="st6" d="M54.5,125.7c-2,1.2-3.8,1.6-6.1,0.3c-10.8-6-16.1-15.3-17-27.3c0-0.4,0-0.7,0-1.1c0.2-1.3,2.4-3.7,3.7-4.1
		l2.2-1.1c0.9-0.3,2-1,2.6,0.1c1.4,2.5,1.9,5.3,2.6,7.9c-0.3,1.4-1.4,1.5-2.4,1.8l-2,0.5c-1.5,1-0.5,2.2-0.1,3.2
		c1.6,4.2,3.8,8.1,7.1,11.2c0.6,0.6,1.2,1.4,2.3,0.9c0.1,0,1.4-1.6,1.4-1.6c0.5-0.6,0.9-1.3,1.8-1.3c0.7,0.1,1.2,0.5,1.6,0.9
		c1.7,1.5,3.4,3.1,5.1,4.7c1.1,1,0.7,1.9-0.1,2.9C57.1,123.8,54.8,125.6,54.5,125.7z"/>
	<g>
		<g>
			<path class="st7" d="M12,87.6c3.1,0,6.2,0,9.3,0c1.9,0,1.9-3,0-3c-3.1,0-6.2,0-9.3,0C10.1,84.6,10.1,87.6,12,87.6L12,87.6z"/>
		</g>
	</g>
	<g>
		<g>
			<path class="st7" d="M12,94.6c3.1,0,6.2,0,9.3,0c1.9,0,1.9-3,0-3c-3.1,0-6.2,0-9.3,0C10.1,91.6,10.1,94.6,12,94.6L12,94.6z"/>
		</g>
	</g>
	<g>
		<g>
			<path class="st7" d="M12,101.5c3.1,0,6.2,0,9.3,0c1.9,0,1.9-3,0-3c-3.1,0-6.2,0-9.3,0C10.1,98.5,10.1,101.5,12,101.5L12,101.5z"
				/>
		</g>
	</g>
	<g>
		<g>
			<path class="st7" d="M12,108.5c3.1,0,6.2,0,9.3,0c1.9,0,1.9-3,0-3c-3.1,0-6.2,0-9.3,0C10.1,105.5,10.1,108.5,12,108.5L12,108.5z"
				/>
		</g>
	</g>
	<g>
		<g>
			<path class="st7" d="M12,114.8c3.1,0,6.2,0,9.3,0c1.9,0,1.9-3,0-3c-3.1,0-6.2,0-9.3,0C10.1,111.8,10.1,114.8,12,114.8L12,114.8z"
				/>
		</g>
	</g>
	<g>
		<g>
			<path class="st7" d="M12,121.2c3.1,0,6.2,0,9.3,0c1.9,0,1.9-3,0-3c-3.1,0-6.2,0-9.3,0C10.1,118.2,10.1,121.2,12,121.2L12,121.2z"
				/>
		</g>
	</g>
	<g>
		<g>
			<path class="st7" d="M12,128.2c3.1,0,6.2,0,9.3,0c1.9,0,1.9-3,0-3c-3.1,0-6.2,0-9.3,0C10.1,125.2,10.1,128.2,12,128.2L12,128.2z"
				/>
		</g>
	</g>
	<g>
		<g>
			<path class="st7" d="M12,135.1c3.1,0,6.2,0,9.3,0c1.9,0,1.9-3,0-3c-3.1,0-6.2,0-9.3,0C10.1,132.1,10.1,135.1,12,135.1L12,135.1z"
				/>
		</g>
	</g>
</g>
<g id="telephone">
	<path class="st8" d="M130.8,137c-3.4,2.7-6.7,3.7-11.2,1.9c-21.2-8.6-33.1-24.5-37.4-46.5c-0.1-0.7-0.1-1.4-0.2-2
		c0-2.4,3.5-7.4,5.8-8.3l3.9-2.5c1.5-0.7,3.4-2.3,4.8-0.5c3.2,4.2,4.7,9.3,6.5,14c-0.2,2.7-2.3,3.1-3.9,3.8l-3.6,1.3
		c-2.4,2.2-0.4,4.1,0.5,5.9c3.9,7.4,8.8,14.1,15.6,19c1.3,0.9,2.5,2.2,4.4,1.2c0.2-0.1,2.3-3.2,2.3-3.2c0.7-1.3,1.4-2.6,3.1-2.7
		c1.3,0.1,2.3,0.7,3.2,1.4c3.5,2.5,6.9,5,10.4,7.5c2.2,1.6,1.8,3.4,0.5,5.3C135.1,133,131.2,136.7,130.8,137z"/>
</g>
<g id="cell_phone">
	<path class="st8" d="M199.1,109.4c0,8.3,0,16.7,0,25c0,4.6-1.2,5.8-5.8,5.8c-8.1,0-16.3,0-24.4,0c-3.9,0-5.4-1.4-5.4-5.4
		c0-17.1,0-34.1,0-51.2c0-3.8,1.7-5.5,5.4-5.5c8.2,0,16.5,0.1,24.7,0.1c4.1,0,5.5,1.4,5.5,5.6C199.1,92.3,199.1,100.8,199.1,109.4z"
		/>
	<path class="st8" d="M166.8,107.8c0,6.9,0.1,13.9,0,20.8c0,2,0.6,2.5,2.5,2.5c8-0.1,16.1-0.1,24.1,0c1.8,0,2.4-0.6,2.4-2.4
		c-0.1-13.9-0.1-27.8,0-41.7c0-1.8-0.6-2.4-2.4-2.4c-8,0.1-16.1,0.1-24.1,0c-2,0-2.5,0.7-2.5,2.6C166.9,94.1,166.8,101,166.8,107.8z
		"/>
	<path class="st6" d="M181,82.7c2.2,0,4.4,0,6.5,0c0.6,0,1.3-0.2,1.2-0.9c-0.1-0.5-0.6-0.7-1.2-0.7c-4.3,0-8.5,0-12.8,0
		c-0.5,0-1.1,0.2-1.1,0.8c0,0.5,0.5,0.8,1,0.8C176.8,82.8,178.9,82.7,181,82.7z"/>
	<g>
		<path class="st5" d="M187.5,136.5c0,0.6-0.4,1-1,1h-9c-0.6,0-1-0.4-1-1v-1c0-0.6,0.4-1,1-1h9c0.6,0,1,0.4,1,1V136.5z"/>
	</g>
</g>
<g id="conf_call">
	<path class="st6" d="M280.5,104.4c-1.4,1.1-2.8,1.6-4.7,0.8C267,101.6,262,95,260.2,85.8c-0.1-0.3-0.1-0.6-0.1-0.8
		c0-1,1.5-3.1,2.4-3.5l1.6-1.1c0.6-0.3,1.4-1,2-0.2c1.3,1.8,2,3.9,2.7,5.8c-0.1,1.1-1,1.3-1.6,1.6l-1.5,0.5c-1,0.9-0.2,1.7,0.2,2.5
		c1.6,3.1,3.7,5.9,6.5,7.9c0.5,0.4,1.1,0.9,1.9,0.5c0.1,0,1-1.3,1-1.3c0.3-0.5,0.6-1.1,1.3-1.1c0.5,0,1,0.3,1.3,0.6
		c1.5,1,2.9,2.1,4.3,3.1c0.9,0.7,0.7,1.4,0.2,2.2C282.3,102.7,280.7,104.3,280.5,104.4z"/>
	<path class="st6" d="M273.7,139.6c-1.4,1.1-2.8,1.6-4.7,0.8c-8.8-3.6-13.8-10.2-15.6-19.4c-0.1-0.3-0.1-0.6-0.1-0.8
		c0-1,1.5-3.1,2.4-3.5l1.6-1.1c0.6-0.3,1.4-1,2-0.2c1.3,1.8,2,3.9,2.7,5.8c-0.1,1.1-1,1.3-1.6,1.6l-1.5,0.5c-1,0.9-0.2,1.7,0.2,2.5
		c1.6,3.1,3.7,5.9,6.5,7.9c0.5,0.4,1.1,0.9,1.9,0.5c0.1,0,1-1.3,1-1.3c0.3-0.5,0.6-1.1,1.3-1.1c0.5,0,1,0.3,1.3,0.6
		c1.5,1,2.9,2.1,4.3,3.1c0.9,0.7,0.7,1.4,0.2,2.2C275.5,137.9,273.9,139.4,273.7,139.6z"/>
	<path class="st6" d="M245.5,113.5c-1.4,1.1-2.8,1.6-4.7,0.8c-8.8-3.6-13.8-10.2-15.6-19.4c-0.1-0.3-0.1-0.6-0.1-0.8
		c0-1,1.5-3.1,2.4-3.5l1.6-1.1c0.6-0.3,1.4-1,2-0.2c1.3,1.8,2,3.9,2.7,5.8c-0.1,1.1-1,1.3-1.6,1.6l-1.5,0.5c-1,0.9-0.2,1.7,0.2,2.5
		c1.6,3.1,3.7,5.9,6.5,7.9c0.5,0.4,1.1,0.9,1.9,0.5c0.1,0,1-1.3,1-1.3c0.3-0.5,0.6-1.1,1.3-1.1c0.5,0,1,0.3,1.3,0.6
		c1.5,1,2.9,2.1,4.3,3.1c0.9,0.7,0.7,1.4,0.2,2.2C247.3,111.8,245.7,113.4,245.5,113.5z"/>
	<path class="st9" d="M248.8,130.9c-4.3,4.4-13.7,0.2-14.1-6.3c-1.2,0.1-2.4,0.3-2.4,0.3l4.5-8l6.1,6.8c0,0-1.9,0.2-2.4,0.3
		C239.7,129.9,245.2,131.3,248.8,130.9z"/>
	<path class="st9" d="M239.5,95c-3.3-5.2,3.1-13.4,9.5-12.2c0.1-1.2,0.3-2.4,0.3-2.4l6.7,6.3l-8,4.3c0,0,0.3-1.9,0.3-2.4
		C242.5,86.5,239.9,91.5,239.5,95z"/>
	<path class="st9" d="M278.7,108.6c5.2,3.3,2.8,13.4-3.5,15c0.4,1.1,0.8,2.3,0.8,2.3l-8.7-2.9l5.5-7.3c0,0,0.6,1.8,0.8,2.3
		C279.5,117.7,279.8,112.1,278.7,108.6z"/>
</g>
<g id="talking_bubbles">
	<g>
		<path class="st4" d="M352,120.7c0,0.5-0.9,1.3-1.4,1.3h-41.3c-0.5,0-1.3-0.7-1.3-1.3V99.4c0-0.5,0.7-1.4,1.3-1.4h41.3
			c0.5,0,1.4,0.8,1.4,1.4v12.9c0,0.5,0.2,1.1,0.7,1.3l3.7,1c0.5,0.1,0.5,0.4,0,0.6l-3.7,1.6c-0.5,0.2-0.7,0.8-0.7,1.4V120.7z"/>
	</g>
	<g>
		<path class="st4" d="M343,98v-7.5c0-0.5-0.3-0.5-0.8-0.5h-41.3c-0.5,0-0.9,0-0.9,0.5v12.9c0,0.5-0.5,1.1-1,1.3l-3.8,1
			c-0.5,0.1-0.6,0.4-0.1,0.6l4,1.6c0.5,0.2,1,0.8,1,1.4v2.6c0,0.5,0.3,1.2,0.9,1.2h7.1"/>
	</g>
	<line class="st5" x1="312" y1="107.5" x2="344" y2="107.5"/>
	<line class="st5" x1="312" y1="103.5" x2="344" y2="103.5"/>
	<line class="st5" x1="312" y1="111.5" x2="341" y2="111.5"/>
</g>
<g id="envelope">
	<g>
		<path class="st4" d="M424,125c0,1.1-0.9,2-2,2h-58c-1.1,0-2-0.9-2-2V89c0-1.1,0.9-2,2-2h58c1.1,0,2,0.9,2,2V125z"/>
	</g>
	<g>
		<path class="st5" d="M394.9,113.5c-0.8,0.7-2.2,0.7-3,0L364,88.6c-0.8-0.7-0.6-1.1,0.5-1.1h58.1c1.1,0,1.3,0.3,0.5,1.1
			L394.9,113.5z"/>
	</g>
	<g>
		<path class="st5" d="M383.5,107.7L364,126.1c-0.8,0.8-0.6,1.4,0.5,1.4h58.1c1.1,0,1.3-0.7,0.5-1.4l-19.7-18.3"/>
	</g>
</g>
<g id="envelope_2">
	<g>
		<path class="st4" d="M496,126c0,1.1-0.9,2-2,2h-58c-1.1,0-2-0.9-2-2V90c0-1.1,0.9-2,2-2h58c1.1,0,2,0.9,2,2V126z"/>
	</g>
	<line class="st5" x1="437" y1="91.5" x2="448" y2="91.5"/>
	<line class="st5" x1="437" y1="95.5" x2="448" y2="95.5"/>
	<line class="st5" x1="437" y1="93.5" x2="448" y2="93.5"/>
	<line class="st5" x1="458" y1="106.5" x2="474" y2="106.5"/>
	<line class="st5" x1="461" y1="110.5" x2="471" y2="110.5"/>
	<line class="st5" x1="461" y1="108.5" x2="471" y2="108.5"/>
	<rect x="485.5" y="91.5" class="st5" width="7" height="7"/>
</g>
<g id="inbox_1">
	<g>
		<path class="st4" d="M564,125c0,1.1-0.9,2-2,2h-47c-1.1,0-2-0.9-2-2V96c0-1.1,0.9-2,2-2h47c1.1,0,2,0.9,2,2V125z"/>
	</g>
	<g>
		<path class="st5" d="M540.4,115.6c-0.8,0.7-2.2,0.7-3,0l-22.4-20c-0.8-0.7-0.6-1.1,0.5-1.1h47c1.1,0,1.3,0.3,0.5,1.1L540.4,115.6z
			"/>
	</g>
	<g>
		<path class="st5" d="M530.8,111L515,126c-0.8,0.8-0.6,1.5,0.5,1.5h47c1.1,0,1.3-0.8,0.5-1.5l-15.9-14.9"/>
	</g>
	<circle class="st10" cx="562.1" cy="96.9" r="7.6"/>
	<text transform="matrix(1 0 0 1 559.167 100.5)" class="st7 st11 st12">1</text>
</g>
<g id="trash">
	<g>
		<path class="st0" d="M483.9,64c-0.1,0.5-0.6,1-1.2,1h-28.6c-0.5,0-1.1-0.4-1.2-1l-7.4-44.2c-0.1-0.5,0.3-1,0.8-1h44.1
			c0.5,0,0.9,0.4,0.8,1L483.9,64z"/>
	</g>
	<line class="st0" x1="468.5" y1="25.7" x2="468.7" y2="58.2"/>
	<line class="st0" x1="477.9" y1="25.7" x2="478.1" y2="58.2"/>
	<line class="st0" x1="460" y1="25.7" x2="460.1" y2="58.2"/>
	<g>
		<path class="st0" d="M494.8,17.9c0.1,0.5-0.2,1-0.8,1h-51c-0.5,0-0.9-0.4-0.8-1l1.3-5.7c0.1-0.5,0.7-1,1.2-1h47.6
			c0.6,0,1.1,0.4,1.2,1L494.8,17.9z"/>
	</g>
	<g>
		<path class="st0" d="M472.8,9.8c0,0.6-0.4,1-1,1h-6.5c-0.5,0-1-0.4-1-1V8.7c0-0.5,0.5-1,1-1h6.5c0.6,0,1,0.5,1,1V9.8z"/>
	</g>
</g>
<g id="calendar">
	<g>
		<path class="st4" d="M208,354c0,1.1-0.9,2-2,2h-51c-1.1,0-2-0.9-2-2v-53c0-1.1,0.9-2,2-2h51c1.1,0,2,0.9,2,2V354z"/>
	</g>
	<circle class="st6" cx="161.3" cy="304.9" r="1.9"/>
	<circle class="st6" cx="197.3" cy="304.9" r="1.9"/>
	<line class="st13" x1="167" y1="311.5" x2="191" y2="311.5"/>
	<rect x="196.5" y="318.5" class="st5" width="6" height="6"/>
	<rect x="190.5" y="318.5" class="st5" width="6" height="6"/>
	<rect x="184.5" y="318.5" class="st5" width="6" height="6"/>
	<rect x="178.5" y="318.5" class="st5" width="6" height="6"/>
	<rect x="172.5" y="318.5" class="st5" width="6" height="6"/>
	<rect x="160.5" y="324.5" class="st5" width="6" height="6"/>
	<rect x="196.5" y="324.5" class="st5" width="6" height="6"/>
	<rect x="190.5" y="324.5" class="st5" width="6" height="6"/>
	<rect x="184.5" y="324.5" class="st5" width="6" height="6"/>
	<rect x="178.5" y="324.5" class="st5" width="6" height="6"/>
	<rect x="172.5" y="324.5" class="st5" width="6" height="6"/>
	<rect x="166.5" y="324.5" class="st5" width="6" height="6"/>
	<rect x="160.5" y="330.5" class="st5" width="6" height="6"/>
	<rect x="196.5" y="330.5" class="st5" width="6" height="6"/>
	<rect x="190.5" y="330.5" class="st5" width="6" height="6"/>
	<rect x="184.5" y="330.5" class="st5" width="6" height="6"/>
	<rect x="178.5" y="330.5" class="st5" width="6" height="6"/>
	<rect x="172.5" y="330.5" class="st5" width="6" height="6"/>
	<rect x="166.5" y="330.5" class="st5" width="6" height="6"/>
	<rect x="160.5" y="336.5" class="st5" width="6" height="6"/>
	<rect x="196.5" y="336.5" class="st5" width="6" height="6"/>
	<rect x="190.5" y="336.5" class="st5" width="6" height="6"/>
	<rect x="184.5" y="336.5" class="st5" width="6" height="6"/>
	<rect x="178.5" y="336.5" class="st5" width="6" height="6"/>
	<rect x="172.5" y="336.5" class="st5" width="6" height="6"/>
	<rect x="166.5" y="336.5" class="st5" width="6" height="6"/>
	<rect x="160.5" y="342.5" class="st5" width="6" height="6"/>
	<rect x="184.5" y="342.5" class="st5" width="6" height="6"/>
	<rect x="178.5" y="342.5" class="st5" width="6" height="6"/>
	<rect x="172.5" y="342.5" class="st5" width="6" height="6"/>
	<rect x="166.5" y="342.5" class="st5" width="6" height="6"/>
	<line class="st5" x1="160" y1="315.5" x2="203" y2="315.5"/>
</g>
<g id="mailbox">
	<path class="st14" d="M514,23c0-6.6,5.4-12,12-12h30c6.6,0,12,5.4,12,12v25h-54V23z"/>
	<path class="st0" d="M514,48V21.9c0-6,5.4-10.9,12.1-10.9h0.1c6.7,0,10.7,4.9,10.7,10.9V48H514z"/>
	<polygon class="st15" points="529,25 529,25 520,25 520,25 520,25 520,25 529,25 529,25 	"/>
	<line class="st15" x1="547" y1="21" x2="562" y2="21"/>
	<rect x="556" y="21" class="st15" width="6" height="5"/>
	<rect x="543" y="48" class="st15" width="8" height="15"/>
</g>
<g id="monitor_search">
	<g>
		<path class="st4" d="M65,189c0,1.1-0.9,2-2,2H12c-1.1,0-2-0.9-2-2v-29c0-1.1,0.9-2,2-2h51c1.1,0,2,0.9,2,2V189z"/>
	</g>
	<rect x="33.5" y="190.5" class="st5" width="9" height="15"/>
	<rect x="23.5" y="205.5" class="st5" width="29" height="2"/>
	<path id="XMLID_3_" class="st16" d="M49.9,186.7l1.1-1.1l-7.6-7.6l-0.4,0.4l-0.7-0.7c1.6-1.9,2.5-4.3,2.5-6.9
		c0-5.9-4.8-10.8-10.8-10.8c-5.9,0-10.8,4.8-10.8,10.8c0,5.9,4.8,10.8,10.8,10.8c2.6,0,5-0.9,6.9-2.5l0.7,0.7l-0.4,0.4l7.6,7.6
		l0.4-0.4l0,0L49.9,186.7z M25.6,170.9c0-4.7,3.8-8.4,8.4-8.4s8.4,3.8,8.4,8.4c0,4.7-3.8,8.4-8.4,8.4S25.6,175.6,25.6,170.9z"/>
	<path id="XMLID_2_" class="st16" d="M29.5,172.3c0-0.5-0.4-0.9-0.9-0.9c-0.5,0-0.9,0.4-0.9,0.9c0,2.5,2,4.5,4.5,4.5
		c0.5,0,0.9-0.4,0.9-0.9s-0.4-0.9-0.9-0.9C30.7,175,29.5,173.8,29.5,172.3z"/>
	<circle id="XMLID_1_" class="st16" cx="29.1" cy="169.2" r="0.9"/>
</g>
<g id="monitor">
	<g>
		<path class="st4" d="M136,189c0,1.1-0.9,2-2,2H83c-1.1,0-2-0.9-2-2v-29c0-1.1,0.9-2,2-2h51c1.1,0,2,0.9,2,2V189z"/>
	</g>
	<rect x="104.5" y="190.5" class="st5" width="9" height="15"/>
	<rect x="94.5" y="205.5" class="st5" width="29" height="2"/>
</g>
<g id="laptop">
	<g>
		<path class="st4" d="M208,186c0,1.1-0.9,2-2,2h-51c-1.1,0-2-0.9-2-2v-29c0-1.1,0.9-2,2-2h51c1.1,0,2,0.9,2,2V186z"/>
	</g>
	<g>
		<path class="st7" d="M213.7,204.8c0.3,1.1-0.3,2.2-1.4,2.2h-62c-1.1,0-1.8-1.1-1.5-2.2l4.2-15c0.3-1.1,1.4-1.8,2.5-1.8h51
			c1.1,0,2.3,0.7,2.6,1.8L213.7,204.8z"/>
		<path class="st4" d="M213.7,204.8c0.3,1.1-0.3,2.2-1.4,2.2h-62c-1.1,0-1.8-1.1-1.5-2.2l4.2-15c0.3-1.1,1.4-1.8,2.5-1.8h51
			c1.1,0,2.3,0.7,2.6,1.8L213.7,204.8z"/>
	</g>
	<line class="st17" x1="147" y1="205.5" x2="215" y2="205.5"/>
</g>
<g id="magnifying_glass">
	<path id="XMLID_21_" class="st7" d="M569.3,570.2l2.2-2.2l-20.4-20.4l-0.9,0.9l-1.4-1.4c3.2-3.8,5.1-8.7,5.1-14.1
		c0-12.1-9.8-21.9-21.9-21.9c-12.1,0-21.9,9.8-21.9,21.9c0,12.1,9.8,21.9,21.9,21.9c5.4,0,10.3-1.9,14.1-5.1l1.4,1.4l-0.9,0.9
		l20.4,20.4l0.9-0.9l0,0L569.3,570.2z M514.8,533c0-9.5,7.7-17.2,17.2-17.2c9.5,0,17.2,7.7,17.2,17.2c0,9.5-7.7,17.2-17.2,17.2
		C522.5,550.2,514.8,542.5,514.8,533z"/>
	<path id="XMLID_20_" class="st7" d="M522.7,535.9c0-1-0.8-1.8-1.8-1.8c-1,0-1.8,0.8-1.8,1.8c0,5,4.1,9.1,9.1,9.1
		c1,0,1.8-0.8,1.8-1.8c0-1-0.8-1.8-1.8-1.8C525.1,541.3,522.7,538.9,522.7,535.9z"/>
	<circle id="XMLID_19_" class="st7" cx="521.8" cy="529.5" r="1.8"/>
</g>
<g id="tablet">
	<g>
		<path class="st4" d="M346,210c0,1.7-1.3,3-3,3h-35c-1.7,0-3-1.3-3-3v-57c0-1.7,1.3-3,3-3h35c1.7,0,3,1.3,3,3V210z"/>
	</g>
	<rect x="305" y="151" class="st7" width="41" height="7"/>
	<rect x="305" y="205" class="st7" width="41" height="7"/>
	<circle class="st18" cx="325.9" cy="153.3" r="1.5"/>
	<circle class="st17" cx="325.9" cy="209.5" r="1.5"/>
</g>
<g id="printer">
	<g>
		<path class="st7" d="M423,189.5c0,1.1-0.4,2.5-1.5,2.5H413c-1.1,0-2.2-1.1-2.4-2.2l-1.1-5.6c-0.2-1.1-1.3-2-2.4-2l-8.2-0.1
			c-1.1,0-2.9,0-4,0l-9.1,0c-1.1,0-2.2,0.9-2.3,2l-1,5.7c-0.2,1.1-1.2,2.2-2.3,2.2h-7.8c-1.1,0-2.5-1.4-2.5-2.5v-24
			c0-1.1,1.4-1.5,2.5-1.5h49c1.1,0,1.5,0.4,1.5,1.5V189.5z"/>
	</g>
	<g>
		<path class="st4" d="M400.1,184c0.5,0,1.5,0,2,0h4.6c0.5,0,1.1,0.6,1.2,1.1l3.7,21.6c0.1,0.5-0.3,1.3-0.8,1.3h-28.2
			c-0.5,0-0.9-0.7-0.8-1.2l3.7-21.5c0.1-0.5,0.6-1.2,1.2-1.2h3.9c0.5,0,1.5,0,2,0H400.1z"/>
	</g>
	<g>
		<path class="st4" d="M386,162v-9.7c0-0.5,0.7-1.3,1.3-1.3h5.2c0.5,0,1.5,0,2,0h5.1c0.5,0,1.5,0,2,0h2.9c0.5,0,1.3,0.5,1.7,0.9
			l1.3,1.5c0.4,0.4,0.6,1.3,0.6,1.8v6.8"/>
	</g>
	<line class="st4" x1="404" y1="151" x2="404" y2="154"/>
	<line class="st4" x1="408" y1="155" x2="403" y2="155"/>
	<circle class="st19" cx="373.9" cy="167.2" r="1.3"/>
	<line class="st20" x1="377" y1="167.5" x2="381" y2="167.5"/>
	<line class="st20" x1="383" y1="167.5" x2="387" y2="167.5"/>
	<line class="st21" x1="389" y1="187.5" x2="404" y2="187.5"/>
	<line class="st21" x1="388" y1="191.5" x2="405" y2="191.5"/>
	<line class="st21" x1="387" y1="196.5" x2="406" y2="196.5"/>
	<line class="st21" x1="386" y1="202.5" x2="407" y2="202.5"/>
</g>
<g id="browser_search">
	<g>
		<path class="st4" d="M497,205c0,0.5-0.5,1-1,1h-54c-0.5,0-1-0.5-1-1v-42c0-0.5,0.5-1,1-1h54c0.5,0,1,0.5,1,1V205z"/>
	</g>
	<rect x="441" y="162" class="st7" width="56" height="6"/>
	<rect x="443" y="163" class="st18" width="20" height="3"/>
	<rect x="465" y="163" class="st18" width="9" height="3"/>
	<circle class="st18" cx="483.2" cy="164.5" r="1.7"/>
	<circle class="st18" cx="488.2" cy="164.5" r="1.7"/>
	<circle class="st18" cx="493.2" cy="164.5" r="1.7"/>
	<path id="XMLID_8_" class="st7" d="M462.3,165.4L462.3,165.4l-0.6-0.7l0,0l0,0c0.1-0.1,0.2-0.3,0.2-0.5c0-0.4-0.3-0.7-0.7-0.7
		c-0.4,0-0.7,0.3-0.7,0.7c0,0.4,0.3,0.7,0.7,0.7c0.2,0,0.3-0.1,0.5-0.2l0,0l0,0L462.3,165.4L462.3,165.4L462.3,165.4L462.3,165.4z
		 M460.5,164.2c0-0.3,0.3-0.6,0.6-0.6c0.3,0,0.6,0.3,0.6,0.6c0,0.3-0.3,0.6-0.6,0.6C460.7,164.8,460.5,164.5,460.5,164.2z"/>
	<path id="XMLID_7_" class="st7" d="M460.7,164.3C460.7,164.3,460.7,164.2,460.7,164.3c-0.1-0.1-0.1,0-0.1,0c0,0.2,0.1,0.3,0.3,0.3
		c0,0,0.1,0,0.1-0.1c0,0,0-0.1-0.1-0.1C460.8,164.5,460.7,164.4,460.7,164.3z"/>
	<circle id="XMLID_6_" class="st7" cx="460.7" cy="164.1" r="0.1"/>
	<path id="XMLID_13_" class="st7" d="M478.3,185.5l1.1-1.1l-10.2-10.2l-0.4,0.4l-0.7-0.7c1.6-1.9,2.6-4.4,2.6-7.1
		c0-6.1-4.9-11-11-11c-6.1,0-11,4.9-11,11c0,6.1,4.9,11,11,11c2.7,0,5.1-1,7.1-2.6l0.7,0.7l-0.4,0.4l10.2,10.2l0.4-0.4l0,0
		L478.3,185.5z M451,166.8c0-4.8,3.9-8.6,8.6-8.6c4.8,0,8.6,3.9,8.6,8.6c0,4.8-3.9,8.6-8.6,8.6C454.9,175.5,451,171.6,451,166.8z"/>
</g>
<g id="browser_1_">
	<g>
		<path class="st4" d="M570,205c0,0.5-0.5,1-1,1h-54c-0.5,0-1-0.5-1-1v-42c0-0.5,0.5-1,1-1h54c0.5,0,1,0.5,1,1V205z"/>
	</g>
	<rect x="514" y="162" class="st7" width="56" height="6"/>
	<rect x="516" y="163" class="st18" width="20" height="3"/>
	<rect x="538" y="163" class="st18" width="9" height="3"/>
	<circle class="st18" cx="556.2" cy="164.5" r="1.7"/>
	<circle class="st18" cx="561.2" cy="164.5" r="1.7"/>
	<circle class="st18" cx="566.2" cy="164.5" r="1.7"/>
	<path id="XMLID_16_" class="st7" d="M535.3,165.4L535.3,165.4l-0.6-0.7l0,0l0,0c0.1-0.1,0.2-0.3,0.2-0.5c0-0.4-0.3-0.7-0.7-0.7
		c-0.4,0-0.7,0.3-0.7,0.7c0,0.4,0.3,0.7,0.7,0.7c0.2,0,0.3-0.1,0.5-0.2l0,0l0,0L535.3,165.4L535.3,165.4L535.3,165.4L535.3,165.4z
		 M533.5,164.2c0-0.3,0.3-0.6,0.6-0.6c0.3,0,0.6,0.3,0.6,0.6c0,0.3-0.3,0.6-0.6,0.6C533.7,164.8,533.5,164.5,533.5,164.2z"/>
	<path id="XMLID_12_" class="st7" d="M533.7,164.3C533.7,164.3,533.7,164.2,533.7,164.3c-0.1-0.1-0.1,0-0.1,0c0,0.2,0.1,0.3,0.3,0.3
		c0,0,0.1,0,0.1-0.1c0,0,0-0.1-0.1-0.1C533.8,164.5,533.7,164.4,533.7,164.3z"/>
	<circle id="XMLID_11_" class="st7" cx="533.7" cy="164.1" r="0.1"/>
</g>
<g id="mouse">
	<path class="st22" d="M41.7,256.1c0.4,3.7,1.4,5.8,1.4,9.6c0,11.8-7.1,16.7-16.1,16.7c-9.4,0-16.3-4.5-15.6-16
		c0.5-3.5,1.4-4.9,1.5-7.6c0.1-1.1,0.1-1,0.2-2.2"/>
	<path class="st7" d="M28,257c-9,0-5.7,0-15.3,0c0.8-15,6.3-17,15.3-17.3C28,243.5,28,249,28,257z"/>
	<path class="st7" d="M28,257c8,0,4.7,0,14.3,0c-0.8-15-6.3-17-14.3-17.3C28,243.5,28,249,28,257z"/>
	<path class="st18" d="M27,255c-7,0-4.7,0-13,0c0.7-12,6-13.7,13-14C27,244.2,27,249,27,255z"/>
	<path class="st18" d="M28,255c7,0,4.7,0,13,0c-0.7-12-6-13.7-13-14C28,244.2,28,249,28,255z"/>
	<path class="st22" d="M29.5,248.9c0,0.9-0.7,1.6-1.6,1.6h-0.8c-0.9,0-1.6-0.7-1.6-1.6v-2.8c0-0.9,0.7-1.6,1.6-1.6h0.8
		c0.9,0,1.6,0.7,1.6,1.6V248.9z"/>
	<path class="st7" d="M29,240c0,0.2-0.8,0.4-1.5,0.4l0,0c-0.7,0-1.5-0.2-1.5-0.4v-1.6c0-0.2,0.8-0.4,1.5-0.4l0,0
		c0.7,0,1.5,0.2,1.5,0.4V240z"/>
	<path class="st5" d="M27.5,238.5c0.5-0.8-3.6-5.9-3.8-7.6c-0.2-1.7-0.2-3.9,1-5.1c2.9-3,9.4-3.2,12.9-1.6
		c5.5,2.5,8.5,7.5,10.2,13.2c1,3.2,1.8,6.4,2.7,9.6c0.9,3,3.2,7.6,6.6,8.6c3.3,0.9,6.4-2.9,6.7-5.7c0.2-1.5,0-2.8-1-3.9
		c-1-1.2-2.3-1.2-3.4-2.1"/>
</g>
<g id="wifi">
	<circle class="st22" cx="251.7" cy="203.3" r="3.7"/>
	<g>
		<g>
			<path class="st7" d="M236.7,189.4c8.4-9.9,21.7-10,30.1,0c1.7,2,4.5-0.9,2.8-2.8c-9.7-11.6-26-11.5-35.7,0
				C232.2,188.6,235,191.4,236.7,189.4L236.7,189.4z"/>
		</g>
	</g>
	<g>
		<g>
			<path class="st7" d="M229.7,181.4c12.1-14.5,32.1-14.7,44.1,0c1.6,2,4.4-0.8,2.8-2.8c-13.3-16.2-36.4-16-49.7,0
				C225.2,180.5,228,183.4,229.7,181.4L229.7,181.4z"/>
		</g>
	</g>
	<g>
		<g>
			<path class="st7" d="M222.1,174c16-19.4,43.3-19.7,59.2,0c1.6,2,4.4-0.8,2.8-2.8c-17.2-21.3-47.6-21-64.8,0
				C217.7,173.1,220.5,176,222.1,174L222.1,174z"/>
		</g>
	</g>
	<g>
		<g>
			<path class="st7" d="M243.6,197c4.7-5.4,11.6-5.5,16.3,0c1.7,2,4.5-0.9,2.8-2.8c-6-7.1-15.9-7-21.9,0
				C239.1,196.2,241.9,199,243.6,197L243.6,197z"/>
		</g>
	</g>
</g>
<g id="battery">
	<path class="st4" d="M128,284H92v-54h36V284z M122,225H98v5h24V225z"/>
	<polygon class="st4" points="102,253.8 111.6,258.9 108.7,272.5 118.5,255.7 109.2,252.5 112.3,239.9 	"/>
</g>
<g id="low_battery">
	<path class="st4" d="M200,284h-36v-54h36V284z M194,225h-24v5h24V225z"/>
	<rect x="168" y="272.2" class="st23" width="28" height="7.6"/>
</g>
<g id="med_battery">
	<path class="st4" d="M272,285h-36v-54h36V285z M266,226h-24v5h24V226z"/>
	<rect x="240" y="272.2" class="st23" width="28" height="7.6"/>
	<rect x="240" y="260" class="st23" width="28" height="7.6"/>
</g>
<g id="high_battery">
	<path class="st4" d="M344,285h-36v-54h36V285z M338,226h-24v5h24V226z"/>
	<rect x="312" y="272.2" class="st23" width="28" height="7.6"/>
	<rect x="312" y="260" class="st23" width="28" height="7.6"/>
	<rect x="312" y="247.7" class="st23" width="28" height="7.6"/>
</g>
<g id="full_battery">
	<path class="st4" d="M416,285h-36v-54h36V285z M410,226h-24v5h24V226z"/>
	<rect x="384" y="272.2" class="st23" width="28" height="7.6"/>
	<rect x="384" y="260" class="st23" width="28" height="7.6"/>
	<rect x="384" y="235.5" class="st23" width="28" height="7.6"/>
	<rect x="384" y="247.7" class="st23" width="28" height="7.6"/>
</g>
<g id="locked">
	<path class="st23" d="M492.3,251c0-14.9-9.9-26-22.1-26c-12.2,0-22.1,11.1-22.1,26H443v36h54v-36H492.3z"/>
	<path class="st24" d="M486.5,251c0-11.7-7.3-20.5-16.3-20.5c-9,0-16.3,8.8-16.3,20.5H486.5z"/>
	<path class="st24" d="M470,256.5c-2.8,0-5.1,2.3-5.1,5.1c0,1.8,0.9,3.4,2.3,4.3c0.8,0.5-1.3,10.5,2.7,10.5c4.2,0,2.2-10,3-10.6
		c1.3-0.9,2.2-2.4,2.2-4.2C475.1,258.8,472.8,256.5,470,256.5z"/>
</g>
<g id="unlocked">
	<path class="st23" d="M564.2,245.4c-1.1-13.6-10.5-23.4-22-23.4c-12.2,0-22.1,11.1-22.1,26l0,3H515v36h54v-36h-43
		c0-0.2,0-3.4,0-3.6c0.2-11.4,7.4-19.9,16.3-19.9c8.3,0,15.2,7.5,16.1,18L564.2,245.4z"/>
	<path class="st24" d="M543,256.5c-2.8,0-5.1,2.3-5.1,5.1c0,1.8,0.9,3.4,2.3,4.3c0.8,0.5-1.3,10.5,2.7,10.5c4.2,0,2.2-10,3-10.6
		c1.3-0.9,2.2-2.4,2.2-4.2C548.1,258.8,545.8,256.5,543,256.5z"/>
</g>
<g id="pie_chart">
	<path class="st4" d="M107.5,328.5c0,0,17.2-19.7,17.3-19.6c5.5,4.7,8.7,11.3,9.3,18c0.6,6.7-1.3,13.6-5.8,19.2
		C128.3,346.2,107.5,328.5,107.5,328.5z"/>
	<path class="st4" d="M106.1,325.4c0,0-0.7-8-2.7-25.3c0.1,0,0.2,0,0.3,0c6.5-0.2,13.2,2,18.6,6.7
		C122.5,307,106.1,325.4,106.1,325.4z"/>
	<path class="st4" d="M124.4,346.7c-9.1,11.2-25.4,12.8-36.6,3.8c-11.1-9.1-12.9-25.4-3.8-36.6C97.7,324.9,114.1,338.3,124.4,346.7z
		"/>
	<path class="st4" d="M102.9,324.8c0,0-18.4-14.7-18.3-14.8c4-5.1,8.9-7.7,15.8-8.7C100.6,301.3,102.9,324.8,102.9,324.8z"/>
</g>
<g id="pie_chart_2">
	<path class="st4" d="M63,328.5c0,15.4-12.5,27-27.8,27S7.3,343,7.3,327.7c0-15.4,12.5-27.8,27.8-27.8c0,10.2-0.2,28.8-0.2,28.8
		S45.7,328.5,63,328.5z"/>
	<path class="st4" d="M38.5,325.3c0,0-0.2-28-0.1-28c7.6,0.1,14.4,3.2,19.4,8.3c4.9,5,8.1,12,8.3,19.7
		C66.1,325.5,38.5,325.3,38.5,325.3z"/>
</g>
<g id="id_badge">
	<g>
		<path class="st4" d="M58,428c0,1.1-0.9,2-2,2H17c-1.1,0-2-0.9-2-2v-57c0-1.1,0.9-2,2-2h39c1.1,0,2,0.9,2,2V428z"/>
	</g>
	<g>
		<path class="st5" d="M42.5,372.5c0,0.5-0.5,1-1,1h-9c-0.5,0-1-0.5-1-1l0,0c0-0.5,0.5-1,1-1h9C42,371.5,42.5,372,42.5,372.5
			L42.5,372.5z"/>
	</g>
	<rect x="21.5" y="375.5" class="st5" width="31" height="35"/>
	<rect x="22.5" y="418.5" class="st5" width="29" height="9"/>
	<line class="st13" x1="28" y1="415.5" x2="46" y2="415.5"/>
	<g>
		<path class="st22" d="M41.2,393.1c1,2.6-2.6,5-4,5c-1.7,0-4.9-2.4-4.4-5.5c-2.2-2.4-2-6.2,0.5-8.4c2.4-2.2,6.2-2,8.4,0.5
			C43.9,387.1,43.7,390.9,41.2,393.1z"/>
		<g>
			<path class="st7" d="M51.8,408.6c0.4,1-0.3,1.9-1.4,1.9l-26.9,0c-1.1,0-1.7-0.8-1.2-1.9c0,0,3-7.4,5.4-9.1
				c1.5-1.1,3.4-0.6,3.4-0.6c1.1,0.3,2.7,1,3.7,1.5l0.6,0.3c1,0.6,2.5,0.6,3.5,0l0.5-0.3c0.9-0.6,2.6-1.2,3.7-1.5
				c0,0,2.4-0.6,3.9,0.4C49.3,401.1,51.8,408.6,51.8,408.6z"/>
			<path class="st5" d="M51.8,408.6c0.4,1-0.3,1.9-1.4,1.9l-26.9,0c-1.1,0-1.7-0.8-1.2-1.9c0,0,3-7.4,5.4-9.1
				c1.5-1.1,3.4-0.6,3.4-0.6c1.1,0.3,2.7,1,3.7,1.5l0.6,0.3c1,0.6,2.5,0.6,3.5,0l0.5-0.3c0.9-0.6,2.6-1.2,3.7-1.5
				c0,0,2.4-0.6,3.9,0.4C49.3,401.1,51.8,408.6,51.8,408.6z"/>
		</g>
		
			<ellipse transform="matrix(0.3372 -0.9414 0.9414 0.3372 -341.4486 299.7382)" class="st22" cx="42.2" cy="392.4" rx="2" ry="1.4"/>
		<ellipse transform="matrix(0.9414 -0.3372 0.3372 0.9414 -130.4359 33.828)" class="st22" cx="32.2" cy="392.4" rx="1.4" ry="2"/>
	</g>
</g>
<g id="silhouette">
	<path class="st7" d="M128.2,387.6c-0.3-12.1-5.1-21.1-20.8-21.1c-9.1,0-19.8,3.5-21.9,14.9C83,395,91.9,405,91.9,405
		s0.4,7.7-0.1,13.1l24.1,11.5l2.3-13.5c0,0,5,1.7,9.6,0.8c3.7-1.3,0.7-6.6,0.7-6.6s-0.1-1.4,1.7-2.8c-0.3-1.5-1.5-2.1-1.5-2.1
		s1.4-0.2,2.4-1.9c-0.5-0.8-2.2-1.9-1.7-3.3c0.5-0.8,3.5-1.2,3.9-1.7C135.2,396.1,128.4,393,128.2,387.6z"/>
</g>
<g id="group">
	<path class="st25" d="M208.1,391.6c0,5.5-5.1,10.1-10.5,10.5c-0.2,0,13.9,0,13.9,7c0,2.9,0,6.9,0,6.9l-28-0.1c0,0,0-3.9,0-6.7
		c0-7.1,14.1-7.1,14.1-7.1c-5.3-0.5-10.5-5.1-10.5-10.5c0-5.8,4.7-10.5,10.5-10.5C203.4,381.1,208.1,385.8,208.1,391.6z"/>
	<path class="st25" d="M175.1,391.6c0,5.5-5.1,10.1-10.5,10.5c-0.2,0,13.9,0,13.9,7c0,2.9,0,6.9,0,6.9l-28-0.1c0,0,0-3.9,0-6.7
		c0-7.1,14.1-7.1,14.1-7.1c-5.3-0.5-10.5-5.1-10.5-10.5c0-5.8,4.7-10.5,10.5-10.5C170.4,381.1,175.1,385.8,175.1,391.6z"/>
	<path class="st25" d="M194.1,384.6c0,7.1-6.5,13-13.5,13.5c-0.2,0,17.9,0.1,17.9,9.1c0,3.7,0,8.8,0,8.8l-36-0.1c0,0,0-5,0-8.7
		c0-9.1,18.1-9.2,18.1-9.2c-6.8-0.7-13.6-6.5-13.6-13.5c0-7.5,6.1-13.5,13.5-13.5C188,371,194.1,377.1,194.1,384.6z"/>
</g>
<g id="pair">
	<path class="st25" d="M279.8,385.1c0,7.1-6.3,12.9-13.2,13.4c-0.2,0,17.9,0.1,17.9,9c0,3.7,0,8.8,0,8.8l-36-0.1c0,0,0-5,0-8.6
		c0-9,17.9-9.1,17.9-9.1c-6.8-0.7-13.5-6.5-13.5-13.4c0-7.4,6-13.4,13.4-13.4C273.8,371.7,279.8,377.7,279.8,385.1z"/>
	<path class="st25" d="M259.2,388.7c0,8.3-7.5,15.1-15.6,15.7c-0.2,0,20.9,0.1,20.9,10.5c0,4.3,0,10.3,0,10.3l-42-0.1
		c0,0,0-5.8,0-10.1c0-10.6,21-10.6,21-10.6c-7.9-0.8-15.8-7.6-15.8-15.7c0-8.7,7-15.7,15.7-15.7C252.1,373,259.2,380.1,259.2,388.7z
		"/>
</g>
<g id="group_2">
	<path class="st25" d="M352.1,384.6c0,5.5-5.1,10.1-10.5,10.5c-0.2,0,13.9,0,13.9,7c0,2.9,0,6.9,0,6.9l-28-0.1c0,0,0-3.9,0-6.7
		c0-7.1,14.1-7.1,14.1-7.1c-5.3-0.5-10.5-5.1-10.5-10.5c0-5.8,4.7-10.5,10.5-10.5C347.4,374.1,352.1,378.8,352.1,384.6z"/>
	<path class="st25" d="M319.1,384.6c0,5.5-5.1,10.1-10.5,10.5c-0.2,0,13.9,0,13.9,7c0,2.9,0,6.9,0,6.9l-28-0.1c0,0,0-3.9,0-6.7
		c0-7.1,14.1-7.1,14.1-7.1c-5.3-0.5-10.5-5.1-10.5-10.5c0-5.8,4.7-10.5,10.5-10.5C314.4,374.1,319.1,378.8,319.1,384.6z"/>
	<path class="st25" d="M338.1,393.6c0,7.1-6.5,13-13.5,13.5c-0.2,0,17.9,0.1,17.9,9.1c0,3.7,0,8.8,0,8.8l-36-0.1c0,0,0-5,0-8.7
		c0-9.1,18.1-9.2,18.1-9.2c-6.8-0.7-13.6-6.5-13.6-13.5c0-7.5,6.1-13.5,13.5-13.5C332,380,338.1,386.1,338.1,393.6z"/>
</g>
<g id="cycle">
	<path class="st9" d="M39.4,493.8c-8.6,8.5-26.9-0.3-27.3-13.1c-2.3,0.2-4.8,0.5-4.8,0.5l9.1-15.5l11.7,13.5c0,0-3.8,0.3-4.8,0.5
		C21.8,491.5,32.4,494.5,39.4,493.8z"/>
	<path class="st9" d="M17.8,460.3c-3.1-11.7,13.7-23.2,25-17.1c1-2.1,2-4.4,2-4.4l8.8,15.7L36,457.8c0,0,1.6-3.4,2-4.4
		C28.6,446.2,20.7,453.9,17.8,460.3z"/>
	<path class="st9" d="M59,458.6c11.5,3.7,12.2,24,1.1,30.2c1.2,1.9,2.6,4,2.6,4l-18-0.9l6.6-16.6c0,0,2,3.2,2.6,4
		C65.1,475.3,62.8,464.5,59,458.6z"/>
</g>
<g id="arrow">
	<polygon class="st4" points="112,486 112,478 105.5,478 82,478 82,463 105.5,463 112,463 112,455 136.3,470.1 	"/>
</g>
<g id="arrows">
	<polygon class="st4" points="184,471 184,463 177.4,463 154,463 154,448 177.4,448 184,448 184,440 208.3,455.1 	"/>
	<polygon class="st4" points="178,501 178,493 184.9,493 208,493 208,478 184.9,478 178,478 178,470 153.7,485.1 	"/>
</g>
<g id="down_arrow">
	<polygon class="st23" points="237.6,474 246,474 246,467.9 246,444 261,444 261,467.9 261,474 268.6,474 253.5,498.3 	"/>
</g>
<g id="pending">
	<circle class="st4" cx="251.6" cy="328.5" r="31.6"/>
	<circle class="st23" cx="236.9" cy="328.5" r="3.3"/>
	<circle class="st23" cx="266.9" cy="328.5" r="3.3"/>
	<circle class="st23" cx="251.9" cy="328.5" r="3.3"/>
</g>
<g id="in-progress">
	<linearGradient id="SVGID_1_" gradientUnits="userSpaceOnUse" x1="304.7136" y1="353.0086" x2="345.1182" y2="304.8563">
		<stop  offset="0.1452" style="stop-color:#CCCCCC"/>
		<stop  offset="0.3017" style="stop-color:#A4A4A4"/>
		<stop  offset="0.5504" style="stop-color:#6B6B6B"/>
		<stop  offset="0.735" style="stop-color:#484848"/>
		<stop  offset="0.8335" style="stop-color:#3A3A3A"/>
	</linearGradient>
	<path class="st26" d="M356.2,328.5c0,17.4-14.1,31.6-31.6,31.6c-17.4,0-31.6-14.1-31.6-31.6c0-4.9,1.1-9.5,3.1-13.6
		c7.4,3.8,28.5,13.6,28.5,13.6s-6.4-18-10.9-29.6c3.4-1.3,7.1-1.9,10.9-1.9C342,297,356.2,311.1,356.2,328.5z"/>
	<circle class="st4" cx="324.6" cy="328.5" r="31.6"/>
</g>
<g id="complete">
	<circle class="st23" cx="396.6" cy="327.5" r="31.6"/>
	<g>
		<path class="st18" d="M406.3,318c0.4,0.3,0.6,1,0.3,1.4l-10.2,17c-0.3,0.5-0.8,0.5-1.2,0.1l-7.7-8.4c-0.4-0.4-0.4-1.1,0-1.5l0-0.1
			c0.4-0.4,1-0.4,1.3,0l5.8,6.1c0.4,0.4,0.9,0.3,1.2-0.1l8.7-14.5c0.3-0.5,0.9-0.6,1.3-0.3L406.3,318z"/>
		<path class="st27" d="M406.3,318c0.4,0.3,0.6,1,0.3,1.4l-10.2,17c-0.3,0.5-0.8,0.5-1.2,0.1l-7.7-8.4c-0.4-0.4-0.4-1.1,0-1.5l0-0.1
			c0.4-0.4,1-0.4,1.3,0l5.8,6.1c0.4,0.4,0.9,0.3,1.2-0.1l8.7-14.5c0.3-0.5,0.9-0.6,1.3-0.3L406.3,318z"/>
	</g>
</g>
<g id="plus">
	<path class="st23" d="M477,352h-18v-18h-18v-18h18v-18h18v18h18v18h-18V352z"/>
</g>
<g id="minus">
	<rect x="513" y="316" class="st23" width="54" height="18"/>
</g>
<g id="checkmark">
	<g>
		<path class="st18" d="M358.3,443c0.4,0.3,0.6,1,0.3,1.4l-35.7,59.5c-0.3,0.5-0.8,0.5-1.2,0.1l-28.2-30.8c-0.4-0.4-0.4-1.1,0-1.5
			l4.4-4.6c0.4-0.4,1-0.4,1.4,0l20.8,23.8c0.4,0.4,0.9,0.4,1.2-0.1l30.7-51.4c0.3-0.5,0.9-0.6,1.3-0.3L358.3,443z"/>
		<path class="st4" d="M358.3,443c0.4,0.3,0.6,1,0.3,1.4l-35.7,59.5c-0.3,0.5-0.8,0.5-1.2,0.1l-28.2-30.8c-0.4-0.4-0.4-1.1,0-1.5
			l4.4-4.6c0.4-0.4,1-0.4,1.4,0l20.8,23.8c0.4,0.4,0.9,0.4,1.2-0.1l30.7-51.4c0.3-0.5,0.9-0.6,1.3-0.3L358.3,443z"/>
	</g>
</g>
<g id="X">
	<g>
		<path class="st18" d="M398.7,480c-0.4-0.4-1-0.4-1.4,0l-23.5,23.8c-0.4,0.4-1,0.4-1.4,0l-6.3-6.3c-0.4-0.4-0.4-1,0-1.4l23.5-23.8
			c0.4-0.4,0.4-1,0-1.4l-23.8-23.5c-0.4-0.4-0.4-1,0-1.4l6.3-6.3c0.4-0.4,1-0.4,1.4,0l23.8,23.5c0.4,0.4,1,0.4,1.4,0l23.5-23.8
			c0.4-0.4,1-0.4,1.4,0l6.3,6.3c0.4,0.4,0.4,1,0,1.4l-23.5,23.8c-0.4,0.4-0.4,1,0,1.4l23.8,23.5c0.4,0.4,0.4,1,0,1.4l-6.3,6.3
			c-0.4,0.4-1,0.4-1.4,0L398.7,480z"/>
		<path class="st4" d="M398.7,480c-0.4-0.4-1-0.4-1.4,0l-23.5,23.8c-0.4,0.4-1,0.4-1.4,0l-6.3-6.3c-0.4-0.4-0.4-1,0-1.4l23.5-23.8
			c0.4-0.4,0.4-1,0-1.4l-23.8-23.5c-0.4-0.4-0.4-1,0-1.4l6.3-6.3c0.4-0.4,1-0.4,1.4,0l23.8,23.5c0.4,0.4,1,0.4,1.4,0l23.5-23.8
			c0.4-0.4,1-0.4,1.4,0l6.3,6.3c0.4,0.4,0.4,1,0,1.4l-23.5,23.8c-0.4,0.4-0.4,1,0,1.4l23.8,23.5c0.4,0.4,0.4,1,0,1.4l-6.3,6.3
			c-0.4,0.4-1,0.4-1.4,0L398.7,480z"/>
	</g>
</g>
<g id="alert">
	<g>
		<path class="st18" d="M476,488c0,0.5-0.5,1-1.1,1h-9.8c-0.5,0-1-0.4-1.1-1l-3.4-45.1c0-0.5,0.4-1,0.9-1h16.9c0.5,0,1,0.4,0.9,1
			L476,488z"/>
		<path class="st4" d="M476,488c0,0.5-0.5,1-1.1,1h-9.8c-0.5,0-1-0.4-1.1-1l-3.4-45.1c0-0.5,0.4-1,0.9-1h16.9c0.5,0,1,0.4,0.9,1
			L476,488z"/>
	</g>
	<circle class="st24" cx="470" cy="498.2" r="4.9"/>
</g>
<g id="plus_1_">
	<g>
		<path class="st18" d="M546,467.4c0,0.6,0.5,1,1,1l24.3-0.1c0.5,0,1,0.4,1,1l0,6.1c0,0.6-0.4,1-1,1l-24.3,0.1c-0.5,0-1,0.5-1,1
			l0.1,24.3c0,0.6-0.4,1-1,1l-6.1,0c-0.5,0-1-0.4-1-1l-0.1-24.3c0-0.5-0.5-1-1-1l-24.3,0.1c-0.6,0-1-0.4-1-1l0-6.1c0-0.5,0.4-1,1-1
			l24.3-0.1c0.5,0,1-0.5,1-1l-0.1-24.3c0-0.5,0.4-1,1-1l6.1,0c0.5,0,1,0.4,1,1L546,467.4z"/>
		<path class="st4" d="M546,467.4c0,0.6,0.5,1,1,1l24.3-0.1c0.5,0,1,0.4,1,1l0,6.1c0,0.6-0.4,1-1,1l-24.3,0.1c-0.5,0-1,0.5-1,1
			l0.1,24.3c0,0.6-0.4,1-1,1l-6.1,0c-0.5,0-1-0.4-1-1l-0.1-24.3c0-0.5-0.5-1-1-1l-24.3,0.1c-0.6,0-1-0.4-1-1l0-6.1c0-0.5,0.4-1,1-1
			l24.3-0.1c0.5,0,1-0.5,1-1l-0.1-24.3c0-0.5,0.4-1,1-1l6.1,0c0.5,0,1,0.4,1,1L546,467.4z"/>
	</g>
</g>
<g id="scale">
	<g>
		<path class="st7" d="M183,567c0,1.7-0.9,3-2,3s-2-1.3-2-3v-52c0-1.7,0.9-3,2-3s2,1.3,2,3V567z"/>
		<path class="st4" d="M183,567c0,1.7-0.9,3-2,3s-2-1.3-2-3v-52c0-1.7,0.9-3,2-3s2,1.3,2,3V567z"/>
	</g>
	
		<rect x="179.7" y="495.5" transform="matrix(0.3708 0.9287 -0.9287 0.3708 595.457 158.0769)" class="st23" width="2.8" height="45.9"/>
	<path class="st23" d="M195,570h-28c0,0-0.7-3.3,0-4c4.9-4.9,23.6-5.4,28,0C195.6,566.8,195,570,195,570z"/>
	<path class="st23" d="M169,544c3,0-3.4,5.5-7.5,5.5c-4.1,0-10.5-5.5-7.5-5.5S166,544,169,544z"/>
	<polyline class="st4" points="169,544 161,527 154,544 	"/>
	<path class="st23" d="M209,528c3,0-3.4,5.5-7.5,5.5c-4.1,0-10.5-5.5-7.5-5.5S206,528,209,528z"/>
	<polyline class="st4" points="209,528 201,511 194,528 	"/>
</g>
<g id="gear">
	<path class="st7" d="M18.2,529.2l4.5-5.6l-2-5.8l4.8-3l4.4,4.4l6.9-1.8l1.8-6l5.5,0.3L45,518l6.6,2.6l5-3.9l4.4,3.5l-3,5.7l3.8,6
		l6.4-0.1l1.5,5.4l-5.7,2.8l-0.5,7.1l5.2,3.7l-1.9,5.2l-6.1-1l-4.8,5.4l2.2,6l-5,3l-4.2-4.6l-6.7,1.8l-1.9,6l-5.5-0.2l-0.9-6.4
		l-6.9-2.7l-4.8,3.8l-4.4-3.5l3.1-5.5l-4-6l-6.3,0.2L9.2,547l5.7-3.1l0.2-7l-5.1-3.7l1.9-5.1L18.2,529.2z M35.4,526.9
		c-8.3,2.2-13.3,10.7-11.2,19c2.2,8.3,10.7,13.3,19,11.2c8.3-2.2,13.3-10.7,11.2-19C52.2,529.7,43.7,524.7,35.4,526.9z"/>
</g>
<g id="gears">
	<path class="st7" d="M81.2,529.8l1.6-3.7l-2-2.8l2.1-2.3l3,1.7l3.5-2l0.1-3.5l3-0.7l1.4,3.3l3.9,0.4l2.1-2.8l2.9,1.2l-0.8,3.5
		l3,2.6l3.4-1l1.6,2.7l-2.7,2.3l0.8,3.9l3.3,1.2l-0.3,3.1l-3.5,0.4l-1.8,3.6l2.1,2.9l-2.2,2.4l-3-1.8l-3.3,2l-0.1,3.5l-3,0.7
		l-1.4-3.3l-4.1-0.4l-2,2.8l-2.9-1.2l0.9-3.4l-3.1-2.6l-3.3,1l-1.5-2.7l2.6-2.5l-1-3.8l-3.3-1.2l0.3-3L81.2,529.8z M90.1,526
		c-4.2,2.4-5.6,7.7-3.2,11.9c2.4,4.2,7.7,5.6,11.9,3.2c4.2-2.4,5.6-7.7,3.2-11.9C99.5,525,94.2,523.6,90.1,526z"/>
	<path class="st7" d="M115.4,514.3l2.7-1.8l-0.1-2.8l2.4-0.6l1.3,2.5l3.2,0.1l1.6-2.3l2.3,0.9l-0.5,2.8l2.5,2l2.7-1l1.4,2.1l-2,2
		l0.9,3.1l2.8,0.8l-0.1,2.5l-2.8,0.4l-1.2,3l1.7,2.3l-1.5,2l-2.5-1.3l-2.8,1.7l0.2,2.9l-2.5,0.6l-1.2-2.5l-3.1-0.1l-1.6,2.3
		l-2.3-0.8l0.5-2.9l-2.6-2.1l-2.6,1l-1.4-2.1l2.1-1.9l-0.9-3.1l-2.7-0.7l0.2-2.5l2.9-0.6l1-3l-1.7-2.3l1.5-1.9L115.4,514.3z
		 M123.1,515.6c-3.9-0.2-7.1,2.8-7.3,6.7c-0.2,3.9,2.8,7.1,6.7,7.3c3.9,0.2,7.1-2.8,7.3-6.7C129.9,519,126.9,515.7,123.1,515.6z"/>
	<path class="st7" d="M107.2,547.9l2.9-3.6l-1.3-3.7l3-1.9l2.8,2.8l4.4-1.1l1.1-3.8l3.5,0.2l0.6,4l4.2,1.7l3.1-2.5l2.8,2.2l-1.9,3.6
		l2.4,3.8l4-0.1l1,3.4l-3.6,1.8l-0.3,4.5l3.3,2.3l-1.2,3.3l-3.9-0.6l-3,3.4l1.4,3.8l-3.2,1.9l-2.7-2.9l-4.2,1.2l-1.2,3.8l-3.5-0.1
		l-0.5-4l-4.4-1.7l-3,2.4l-2.8-2.2l2-3.5l-2.6-3.8l-4,0.1l-0.8-3.4l3.6-1.9l0.1-4.5l-3.2-2.3l1.2-3.2L107.2,547.9z M118.1,546.4
		c-5.3,1.4-8.4,6.8-7.1,12c1.4,5.3,6.8,8.4,12,7.1c5.3-1.4,8.4-6.8,7.1-12C128.8,548.2,123.4,545.1,118.1,546.4z"/>
</g>
<g id="brain_gears">
	<path class="st7" d="M416.3,388.6c-0.3-12.1-5.1-21.1-20.8-21.1c-9.1,0-19.8,3.5-21.9,14.9C371.1,396,380,406,380,406
		s0.4,7.7-0.1,13l24.1,11.5l2.3-13.5c0,0,5,1.7,9.6,0.8c3.7-1.3,0.7-6.6,0.7-6.6s-0.1-1.4,1.7-2.8c-0.3-1.5-1.5-2.1-1.5-2.1
		s1.4-0.2,2.4-1.9c-0.5-0.8-2.2-1.9-1.7-3.3c0.5-0.8,3.5-1.2,3.9-1.7C423.3,397.1,416.5,394,416.3,388.6z"/>
	<path class="st18" d="M400.7,372l1.4,1.1l1.4-0.5l0.8,1.2l-1.1,1.1l0.5,1.7l1.5,0.4l-0.1,1.4l-1.6,0.2l-0.6,1.7l1,1.2l-0.9,1.1
		l-1.4-0.7l-1.5,1l0.1,1.6l-1.3,0.4l-0.7-1.4l-1.8-0.1l-0.9,1.3l-1.3-0.5l0.2-1.5l-1.4-1.2l-1.5,0.6l-0.8-1.2l1.1-1.1l-0.5-1.7
		l-1.5-0.5l0-1.4l1.6-0.2l0.6-1.8l-1-1.2l0.9-1.1l1.4,0.8l1.5-1l-0.1-1.6l1.3-0.3l0.8,1.4l1.8,0l0.9-1.3l1.3,0.5L400.7,372z
		 M401.3,376.3c-0.6-2.1-2.7-3.3-4.8-2.7c-2.1,0.6-3.3,2.7-2.7,4.8c0.6,2.1,2.7,3.3,4.8,2.7C400.7,380.6,401.9,378.4,401.3,376.3z"
		/>
	<path class="st18" d="M403.5,388.7l0.5,1.4l1.2,0.3l0,1.1l-1.2,0.3l-0.4,1.4l0.8,1l-0.6,0.9l-1.2-0.5l-1.2,0.8l0.1,1.3l-1.1,0.4
		l-0.7-1.1l-1.4,0l-0.7,1.1l-1.1-0.3l0.1-1.3l-1.2-0.9l-1.2,0.5l-0.7-0.9l0.8-0.9l-0.4-1.4l-1.3-0.3l0-1.2l1.2-0.2l0.4-1.3l-0.8-1
		l0.6-0.9l1.2,0.5l1.2-0.9l-0.2-1.2l1.1-0.4l0.6,1.1l1.5-0.1l0.6-1.1l1.1,0.3l-0.1,1.3l1.2,0.8l1.2-0.5l0.7,0.9L403.5,388.7z
		 M402.1,391.9c0.5-1.7-0.4-3.4-2.1-3.9c-1.7-0.5-3.4,0.4-3.9,2.1c-0.5,1.7,0.4,3.4,2.1,3.9C399.8,394.5,401.6,393.6,402.1,391.9z"
		/>
	<path class="st18" d="M389.8,381.3l1.2,1.7l1.7-0.2l0.5,1.5l-1.5,0.9l0,2l1.5,0.9l-0.5,1.5l-1.8-0.2l-1.2,1.6l0.7,1.7l-1.3,1
		l-1.4-1.2l-1.9,0.6l-0.4,1.8l-1.6,0l-0.4-1.8l-1.9-0.7l-1.4,1.2l-1.3-0.9l0.7-1.6l-1.1-1.7l-1.8,0.2l-0.5-1.6l1.6-0.8l0-2l-1.5-1
		l0.5-1.5l1.8,0.2l1.2-1.7l-0.7-1.6l1.3-1l1.3,1.3l2-0.7l0.4-1.7l1.6,0l0.4,1.8l1.9,0.6l1.4-1.1l1.3,0.9L389.8,381.3z M389.2,386.2
		c0-2.5-2-4.4-4.4-4.4c-2.5,0-4.4,2-4.4,4.4c0,2.5,2,4.4,4.4,4.4C387.2,390.7,389.2,388.7,389.2,386.2z"/>
</g>
<g id="brain">
	<path class="st7" d="M489.1,388.6c-0.3-12.1-5.1-21.1-20.8-21.1c-9.1,0-19.8,3.5-21.9,14.9c-2.5,13.7,6.4,23.6,6.4,23.6
		s0.4,7.7-0.1,13l24.1,11.5l2.3-13.5c0,0,5,1.7,9.6,0.8c3.7-1.3,0.7-6.6,0.7-6.6s-0.1-1.4,1.7-2.8c-0.3-1.5-1.5-2.1-1.5-2.1
		s1.4-0.2,2.4-1.9c-0.5-0.8-2.2-1.9-1.7-3.3c0.5-0.8,3.5-1.2,3.9-1.7C496.1,397.1,489.3,394,489.1,388.6z"/>
	<path class="st18" d="M449.4,389.5c0.2,1.9,2.2,4,3.8,3.7c3.6-0.5,9.5-3.4,7.4-2c-6.1,4.2,4.1,9.4,5.8,6.2c0.5-0.9-2.3,8.8-1.1,8.6
		c1.4-0.2,2.2-0.5,2.4-1.4c0.8-2.8,1.5-10.1,3.2-12.6c2.3,3.7,8.1-0.1,6.5-3.6c4.3-0.8,8.5-2.1,7.3-7.2c-1.9-8.2-11.2-12-21.1-10.7
		C452.8,371.9,448.7,380.6,449.4,389.5z"/>
</g>
<g id="idea">
	<path class="st7" d="M560.3,388.6c-0.3-12.1-5.1-21.1-20.8-21.1c-9.1,0-19.8,3.5-21.9,14.9C515.1,396,524,406,524,406
		s0.4,7.7-0.1,13l24.1,11.5l2.3-13.5c0,0,5,1.7,9.6,0.8c3.7-1.3,0.7-6.6,0.7-6.6s-0.1-1.4,1.7-2.8c-0.3-1.5-1.5-2.1-1.5-2.1
		s1.4-0.2,2.4-1.9c-0.5-0.8-2.2-1.9-1.7-3.3c0.5-0.8,3.5-1.2,3.9-1.7C567.3,397.1,560.5,394,560.3,388.6z"/>
	<g>
		<path class="st18" d="M543.8,381.9c0,2.2-1.2,4.1-2.7,5.7c-0.5,0.5-1.2,3.3-1.2,3.3c-0.1,0.5-0.7,1.2-1.2,1.2h-2.6
			c-0.5,0-1.1-0.6-1.2-1.2c0,0-0.5-2.7-1-3.1c-1.6-1.4-2.7-3.6-2.7-5.8c0-3.6,2.8-6.5,6.2-6.5C541,375.4,543.8,378.3,543.8,381.9z"
			/>
		<path class="st17" d="M543.8,381.9c0,2.2-1.2,4.1-2.7,5.7c-0.5,0.5-1.2,3-1.2,3c-0.1,0.5-0.7,0.9-1.2,0.9h-2.6
			c-0.5,0-1.1-0.4-1.2-0.9c0,0-0.5-2.6-1-3c-1.6-1.4-2.7-3.5-2.7-5.7c0-3.6,2.8-6.5,6.2-6.5C541,375.4,543.8,378.3,543.8,381.9z"/>
	</g>
	<path class="st20" d="M532.9,381.1c0.3-2.1,2-4.1,3.9-4.2"/>
	<g>
		<line class="st18" x1="535.4" y1="392.5" x2="539.6" y2="392.5"/>
		<line class="st17" x1="535.4" y1="392.5" x2="539.6" y2="392.5"/>
	</g>
	<g>
		<line class="st18" x1="535.4" y1="393.6" x2="539.6" y2="393.6"/>
		<line class="st17" x1="535.4" y1="393.6" x2="539.6" y2="393.6"/>
	</g>
	<g>
		<line class="st18" x1="536" y1="394.6" x2="539.1" y2="394.6"/>
		<line class="st17" x1="536" y1="394.6" x2="539.1" y2="394.6"/>
	</g>
	<g>
		<line class="st18" x1="536.7" y1="395.2" x2="538.4" y2="395.2"/>
		<line class="st17" x1="536.7" y1="395.2" x2="538.4" y2="395.2"/>
	</g>
	<line class="st20" x1="543" y1="388.2" x2="544.2" y2="389"/>
	<line class="st20" x1="545.4" y1="384.4" x2="546.8" y2="384.9"/>
	<line class="st20" x1="546.1" y1="380.8" x2="547.5" y2="380.5"/>
	<line class="st20" x1="545.9" y1="375.9" x2="544.8" y2="376.8"/>
	<line class="st20" x1="542.5" y1="373.2" x2="541.8" y2="374.5"/>
	<line class="st20" x1="320.5" y1="514.6" x2="320.3" y2="516.1"/>
	<line class="st20" x1="531.9" y1="388.2" x2="530.7" y2="389"/>
	<line class="st20" x1="529.5" y1="384.4" x2="528.1" y2="384.9"/>
	<line class="st20" x1="528.8" y1="380.8" x2="527.3" y2="380.5"/>
	<line class="st20" x1="528.9" y1="375.9" x2="530.1" y2="376.8"/>
	<line class="st20" x1="532.4" y1="373.2" x2="533.1" y2="374.5"/>
</g>
<g id="lightbulb">
	<g>
		<path class="st4" d="M341.9,534c0,6.1-3.4,11.4-7.4,15.7c-1.4,1.5-3.6,10.3-3.6,10.3c-0.1,0.5-0.7,1-1.2,1H319
			c-0.5,0-1.1-0.4-1.2-1c0,0-1.7-8.9-3-10c-4.4-3.8-7.5-9.7-7.5-15.9c0-10,7.8-18,17.3-18C334.2,516,341.9,524.1,341.9,534z"/>
	</g>
	<path class="st28" d="M311.7,531.9c0.7-5.9,5.4-11.2,10.9-11.6"/>
	<line class="st28" x1="318.8" y1="563.6" x2="330.5" y2="563.6"/>
	<line class="st28" x1="318.8" y1="566.5" x2="330.5" y2="566.5"/>
	<line class="st28" x1="320.3" y1="569.4" x2="329" y2="569.4"/>
	<line class="st28" x1="322.3" y1="570.8" x2="327" y2="570.8"/>
</g>
<g id="bright_light_bulb">
	<g>
		<path class="st4" d="M411.9,540.3c0,5.3-3,9.9-6.5,13.6c-1.2,1.3-3.1,8.9-3.1,8.9c-0.1,0.5-0.7,1.1-1.2,1.1h-8.9
			c-0.5,0-1.1-0.6-1.2-1.2c0,0-1.5-7.7-2.6-8.7c-3.8-3.3-6.5-8.5-6.5-13.9c0-8.6,6.8-15.7,15-15.7
			C405.1,524.6,411.9,531.6,411.9,540.3z"/>
	</g>
	<path class="st28" d="M385.7,538.4c0.6-5.1,4.7-9.8,9.5-10.1"/>
	<g>
		<line class="st4" x1="391.8" y1="565.9" x2="401.9" y2="565.9"/>
	</g>
	<g>
		<line class="st4" x1="391.8" y1="568.4" x2="401.9" y2="568.4"/>
	</g>
	<g>
		<line class="st4" x1="393.1" y1="570.9" x2="400.7" y2="570.9"/>
	</g>
	<g>
		<line class="st4" x1="394.8" y1="572.2" x2="399" y2="572.2"/>
	</g>
	<line class="st28" x1="409.9" y1="555.4" x2="412.8" y2="557.4"/>
	<line class="st28" x1="415.8" y1="546.3" x2="419.1" y2="547.5"/>
	<line class="st28" x1="417.4" y1="537.7" x2="420.9" y2="537"/>
	<line class="st28" x1="417.1" y1="525.8" x2="414.3" y2="528"/>
	<line class="st28" x1="408.8" y1="519.3" x2="407" y2="522.4"/>
	<line class="st28" x1="469.8" y1="514.6" x2="469.4" y2="518.2"/>
	<line class="st28" x1="383.3" y1="555.4" x2="380.4" y2="557.4"/>
	<line class="st28" x1="377.5" y1="546.3" x2="374.1" y2="547.5"/>
	<line class="st28" x1="375.8" y1="537.7" x2="372.3" y2="537"/>
	<line class="st28" x1="376.1" y1="525.8" x2="378.9" y2="528"/>
	<line class="st28" x1="384.5" y1="519.3" x2="386.2" y2="522.4"/>
</g>
<g id="info_bubble">
	<path class="st4" d="M493.1,544.2c0,3.9-1.2,7.7-3.2,10.9c-1,1.6,3.2,10.9,3.2,10.9s-10.8-3.3-13.1-2.2c-3.8,1.9-8.1,2.9-12.7,2.9
		c-14.3,0-25.8-10.1-25.8-22.5c0-12.4,11.6-22.5,25.8-22.5C481.6,521.6,493.1,531.7,493.1,544.2z"/>
	<path class="st5" d="M470.7,558.1c-2.8,0.5-6.2-0.1-7.2-3.9c0-2.3,0-16.7,0-16.7h7c0,0,0,12.9,0,14.7c0,4.4,3.5,1.6,4.2-1.5
		C475.1,555.2,473.3,557.5,470.7,558.1z"/>
	<circle class="st5" cx="466.9" cy="532.1" r="3.4"/>
</g>
<g id="location_pin">
	<path class="st7" d="M276.9,534.4c0,12.8-23.2,42.4-23.2,42.4s-23.2-29.6-23.2-42.4c0-12.8,10.4-23.2,23.2-23.2
		S276.9,521.6,276.9,534.4z M254,523.9c-5.8,0-10.6,4.7-10.6,10.6S248.2,545,254,545c5.8,0,10.6-4.7,10.6-10.6
		S259.8,523.9,254,523.9z"/>
</g>
</svg>
